<svg width="16" height="20" viewBox="0 0 16 20" fill="none" xmlns="http://www.w3.org/2000/svg">
<path d="M12.579 9.17106C13.7158 8.53024 14.3303 7.2474 14.1185 5.96051C13.8553 3.97371 11.4869 3.22365 9.61843 3.0658V0.0789795H7.77632V3.0395H6.53951V0.0789795H4.6974V3.0395H0.986816V4.94742H2.3684C2.98684 4.94742 3.28945 5.13163 3.28945 5.6316V13.829C3.28945 14.5132 2.94733 14.7237 2.57891 14.7237H1.17103V16.6711H4.74999V19.6974H6.60525V16.6711H7.84207V19.6974H9.64473V16.6711H10.0394C13.8289 16.6711 15.0921 14.8159 15.0921 12.2896C15.0618 10.8 14.0289 9.51843 12.579 9.17106ZM6.53944 5.06582H7.85522C8.77627 5.06582 10.5921 5.22374 10.5921 6.72372C10.6552 7.70268 9.94601 8.56059 8.97363 8.68423H6.53944V5.06582ZM8.57891 14.5395V14.5263H6.53944V10.5789H8.90789C9.46052 10.5789 11.5394 10.7631 11.5394 12.2368C11.5394 13.7105 10.5526 14.5395 8.57891 14.5395Z" fill="#E4A22B"/>
</svg>
